{
  "asset": {
    "version": "2.0",
    "generator": "THREE.GLTFExporter"
  },
  "scenes": [
    {
      "nodes": [
        3
      ],
      "name": "AuxScene"
    }
  ],
  "scene": 0,
  "nodes": [
    {
      "matrix": [
        0.39370078740157477,
        0,
        0,
        0,
        0,
        0.39370078740157477,
        0,
        0,
        0,
        0,
        0.39370078740157477,
        0,
        0,
        0,
        0,
        1
      ],
      "name": "Shield",
      "mesh": 0
    },
    {
      "matrix": [
        0.39370078740157477,
        0,
        0,
        0,
        0,
        0.39370078740157477,
        0,
        0,
        0,
        0,
        0.39370078740157477,
        0,
        0,
        0,
        0,
        1
      ],
      "name": "H",
      "mesh": 1
    },
    {
      "name": "badge_of_bagels_v4",
      "children": [
        0,
        1
      ]
    },
    {
      "children": [
        2
      ]
    }
  ],
  "bufferViews": [
    {
      "buffer": 0,
      "byteOffset": 0,
      "byteLength": 441432,
      "target": 34962,
      "byteStride": 12
    },
    {
      "buffer": 0,
      "byteOffset": 441432,
      "byteLength": 441432,
      "target": 34962,
      "byteStride": 12
    },
    {
      "buffer": 0,
      "byteOffset": 882864,
      "byteLength": 294288,
      "target": 34962,
      "byteStride": 8
    },
    {
      "buffer": 0,
      "byteOffset": 1177152,
      "byteLength": 73572,
      "target": 34963
    },
    {
      "buffer": 0,
      "byteOffset": 1250724,
      "byteLength": 2592,
      "target": 34962,
      "byteStride": 12
    },
    {
      "buffer": 0,
      "byteOffset": 1253316,
      "byteLength": 2592,
      "target": 34962,
      "byteStride": 12
    },
    {
      "buffer": 0,
      "byteOffset": 1255908,
      "byteLength": 1728,
      "target": 34962,
      "byteStride": 8
    },
    {
      "buffer": 0,
      "byteOffset": 1257636,
      "byteLength": 432,
      "target": 34963
    }
  ],
  "buffers": [
    {
      "byteLength": 1258068,
      "uri": "data:application/octet-stream;base64,"
    }
  ],
  "accessors": [
    {
      "bufferView": 0,
      "componentType": 5126,
      "count": 36786,
      "max": [
        7.395985126495361,
        1.9049999713897705,
        12.699999809265137
      ],
      "min": [
        -7.396400451660156,
        0,
        -0.025331441313028336
      ],
      "type": "VEC3"
    },
    {
      "bufferView": 1,
      "componentType": 5126,
      "count": 36786,
      "max": [
        0.9999889731407166,
        1,
        0.9999866485595703
      ],
      "min": [
        -0.999992847442627,
        -1,
        -0.9999958276748657
      ],
      "type": "VEC3"
    },
    {
      "bufferView": 2,
      "componentType": 5126,
      "count": 36786,
      "max": [
        15.602940559387207,
        20.491548538208008
      ],
      "min": [
        -15.606721878051758,
        -6.398519515991211
      ],
      "type": "VEC2"
    },
    {
      "bufferView": 3,
      "componentType": 5123,
      "count": 36786,
      "max": [
        36785
      ],
      "min": [
        0
      ],
      "type": "SCALAR"
    },
    {
      "bufferView": 4,
      "componentType": 5126,
      "count": 216,
      "max": [
        -3.1498453617095947,
        2.0573999881744385,
        3.8213951587677
      ],
      "min": [
        -4.303913593292236,
        1.0413999557495117,
        2.3539109230041504
      ],
      "type": "VEC3"
    },
    {
      "bufferView": 5,
      "componentType": 5126,
      "count": 216,
      "max": [
        0.9999866485595703,
        1,
        0.9999866485595703
      ],
      "min": [
        -0.9999866485595703,
        -1,
        -0.9999866485595703
      ],
      "type": "VEC3"
    },
    {
      "bufferView": 6,
      "componentType": 5126,
      "count": 216,
      "max": [
        1.4615812301635742,
        1.0160000324249268
      ],
      "min": [
        -4.269837856292725,
        -4.269837856292725
      ],
      "type": "VEC2"
    },
    {
      "bufferView": 7,
      "componentType": 5123,
      "count": 216,
      "max": [
        215
      ],
      "min": [
        0
      ],
      "type": "SCALAR"
    }
  ],
  "materials": [
    {
      "pbrMetallicRoughness": {
        "baseColorFactor": [
          0.18823529411764706,
          0.23137254901960785,
          0.5882352941176471,
          1
        ],
        "metallicFactor": 0.5,
        "roughnessFactor": 0.5
      },
      "name": "Paint - Enamel Glossy (Blue)"
    },
    {
      "pbrMetallicRoughness": {
        "baseColorFactor": [
          0.9647058823529412,
          0.9647058823529412,
          0.9529411764705882,
          1
        ],
        "metallicFactor": 0.5,
        "roughnessFactor": 0.5
      },
      "name": "Paint - Enamel Glossy (White)"
    }
  ],
  "meshes": [
    {
      "primitives": [
        {
          "mode": 4,
          "attributes": {
            "POSITION": 0,
            "NORMAL": 1,
            "TEXCOORD_0": 2
          },
          "indices": 3,
          "material": 0
        }
      ]
    },
    {
      "primitives": [
        {
          "mode": 4,
          "attributes": {
            "POSITION": 4,
            "NORMAL": 5,
            "TEXCOORD_0": 6
          },
          "indices": 7,
          "material": 1
        }
      ]
    }
  ]
}