{
  "asset": {
    "version": "2.0",
    "generator": "THREE.GLTFExporter"
  },
  "scenes": [
    {
      "nodes": [
        10
      ],
      "name": "AuxScene"
    }
  ],
  "scene": 0,
  "nodes": [
    {
      "matrix": [
        0.39370078740157477,
        0,
        0,
        0,
        0,
        0.39370078740157477,
        0,
        0,
        0,
        0,
        0.39370078740157477,
        0,
        0,
        0,
        0,
        1
      ],
      "name": "U",
      "mesh": 0
    },
    {
      "matrix": [
        0.39370078740157477,
        0,
        0,
        0,
        0,
        0.39370078740157477,
        0,
        0,
        0,
        0,
        0.39370078740157477,
        0,
        0,
        0,
        0,
        1
      ],
      "name": "H",
      "mesh": 1
    },
    {
      "matrix": [
        0.39370078740157477,
        0,
        0,
        0,
        0,
        0.39370078740157477,
        0,
        0,
        0,
        0,
        0.39370078740157477,
        0,
        0,
        0,
        0,
        1
      ],
      "name": "E",
      "mesh": 2
    },
    {
      "matrix": [
        0.39370078740157477,
        0,
        0,
        0,
        0,
        0.39370078740157477,
        0,
        0,
        0,
        0,
        0.39370078740157477,
        0,
        0,
        0,
        0,
        1
      ],
      "name": "S",
      "mesh": 3
    },
    {
      "matrix": [
        0.39370078740157477,
        0,
        0,
        0,
        0,
        0.39370078740157477,
        0,
        0,
        0,
        0,
        0.39370078740157477,
        0,
        0,
        0,
        0,
        1
      ],
      "name": "Body9",
      "mesh": 4
    },
    {
      "matrix": [
        0.39370078740157477,
        0,
        0,
        0,
        0,
        0.39370078740157477,
        0,
        0,
        0,
        0,
        0.39370078740157477,
        0,
        0,
        0,
        0,
        1
      ],
      "name": "O",
      "mesh": 5
    },
    {
      "matrix": [
        0.39370078740157477,
        0,
        0,
        0,
        0,
        0.39370078740157477,
        0,
        0,
        0,
        0,
        0.39370078740157477,
        0,
        0,
        0,
        0,
        1
      ],
      "name": "Shield",
      "mesh": 6
    },
    {
      "matrix": [
        0.39370078740157477,
        0,
        0,
        0,
        0,
        0.39370078740157477,
        0,
        0,
        0,
        0,
        0.39370078740157477,
        0,
        0,
        0,
        0,
        1
      ],
      "name": "F",
      "mesh": 7
    },
    {
      "matrix": [
        0.39370078740157477,
        0,
        0,
        0,
        0,
        0.39370078740157477,
        0,
        0,
        0,
        0,
        0.39370078740157477,
        0,
        0,
        0,
        0,
        1
      ],
      "name": "O_(1)",
      "mesh": 8
    },
    {
      "name": "badge_of_bagels_v5",
      "children": [
        0,
        1,
        2,
        3,
        4,
        5,
        6,
        7,
        8
      ]
    },
    {
      "children": [
        9
      ]
    }
  ],
  "bufferViews": [
    {
      "buffer": 0,
      "byteOffset": 0,
      "byteLength": 12960,
      "target": 34962,
      "byteStride": 12
    },
    {
      "buffer": 0,
      "byteOffset": 12960,
      "byteLength": 12960,
      "target": 34962,
      "byteStride": 12
    },
    {
      "buffer": 0,
      "byteOffset": 25920,
      "byteLength": 8640,
      "target": 34962,
      "byteStride": 8
    },
    {
      "buffer": 0,
      "byteOffset": 34560,
      "byteLength": 2160,
      "target": 34963
    },
    {
      "buffer": 0,
      "byteOffset": 36720,
      "byteLength": 2592,
      "target": 34962,
      "byteStride": 12
    },
    {
      "buffer": 0,
      "byteOffset": 39312,
      "byteLength": 2592,
      "target": 34962,
      "byteStride": 12
    },
    {
      "buffer": 0,
      "byteOffset": 41904,
      "byteLength": 1728,
      "target": 34962,
      "byteStride": 8
    },
    {
      "buffer": 0,
      "byteOffset": 43632,
      "byteLength": 432,
      "target": 34963
    },
    {
      "buffer": 0,
      "byteOffset": 44064,
      "byteLength": 23040,
      "target": 34962,
      "byteStride": 12
    },
    {
      "buffer": 0,
      "byteOffset": 67104,
      "byteLength": 23040,
      "target": 34962,
      "byteStride": 12
    },
    {
      "buffer": 0,
      "byteOffset": 90144,
      "byteLength": 15360,
      "target": 34962,
      "byteStride": 8
    },
    {
      "buffer": 0,
      "byteOffset": 105504,
      "byteLength": 3840,
      "target": 34963
    },
    {
      "buffer": 0,
      "byteOffset": 109344,
      "byteLength": 32472,
      "target": 34962,
      "byteStride": 12
    },
    {
      "buffer": 0,
      "byteOffset": 141816,
      "byteLength": 32472,
      "target": 34962,
      "byteStride": 12
    },
    {
      "buffer": 0,
      "byteOffset": 174288,
      "byteLength": 21648,
      "target": 34962,
      "byteStride": 8
    },
    {
      "buffer": 0,
      "byteOffset": 195936,
      "byteLength": 5412,
      "target": 34963
    },
    {
      "buffer": 0,
      "byteOffset": 201348,
      "byteLength": 189792,
      "target": 34962,
      "byteStride": 12
    },
    {
      "buffer": 0,
      "byteOffset": 391140,
      "byteLength": 189792,
      "target": 34962,
      "byteStride": 12
    },
    {
      "buffer": 0,
      "byteOffset": 580932,
      "byteLength": 126528,
      "target": 34962,
      "byteStride": 8
    },
    {
      "buffer": 0,
      "byteOffset": 707460,
      "byteLength": 31632,
      "target": 34963
    },
    {
      "buffer": 0,
      "byteOffset": 739092,
      "byteLength": 25056,
      "target": 34962,
      "byteStride": 12
    },
    {
      "buffer": 0,
      "byteOffset": 764148,
      "byteLength": 25056,
      "target": 34962,
      "byteStride": 12
    },
    {
      "buffer": 0,
      "byteOffset": 789204,
      "byteLength": 16704,
      "target": 34962,
      "byteStride": 8
    },
    {
      "buffer": 0,
      "byteOffset": 805908,
      "byteLength": 4176,
      "target": 34963
    },
    {
      "buffer": 0,
      "byteOffset": 810084,
      "byteLength": 432504,
      "target": 34962,
      "byteStride": 12
    },
    {
      "buffer": 0,
      "byteOffset": 1242588,
      "byteLength": 432504,
      "target": 34962,
      "byteStride": 12
    },
    {
      "buffer": 0,
      "byteOffset": 1675092,
      "byteLength": 288336,
      "target": 34962,
      "byteStride": 8
    },
    {
      "buffer": 0,
      "byteOffset": 1963428,
      "byteLength": 72084,
      "target": 34963
    },
    {
      "buffer": 0,
      "byteOffset": 2035512,
      "byteLength": 9000,
      "target": 34962,
      "byteStride": 12
    },
    {
      "buffer": 0,
      "byteOffset": 2044512,
      "byteLength": 9000,
      "target": 34962,
      "byteStride": 12
    },
    {
      "buffer": 0,
      "byteOffset": 2053512,
      "byteLength": 6000,
      "target": 34962,
      "byteStride": 8
    },
    {
      "buffer": 0,
      "byteOffset": 2059512,
      "byteLength": 1500,
      "target": 34963
    },
    {
      "buffer": 0,
      "byteOffset": 2061012,
      "byteLength": 26208,
      "target": 34962,
      "byteStride": 12
    },
    {
      "buffer": 0,
      "byteOffset": 2087220,
      "byteLength": 26208,
      "target": 34962,
      "byteStride": 12
    },
    {
      "buffer": 0,
      "byteOffset": 2113428,
      "byteLength": 17472,
      "target": 34962,
      "byteStride": 8
    },
    {
      "buffer": 0,
      "byteOffset": 2130900,
      "byteLength": 4368,
      "target": 34963
    }
  ],
  "buffers": [
    {
      "byteLength": 2135268,
      "uri": "data:application/octet-stream;base64,"
    }
  ],
  "accessors": [
    {
      "bufferView": 0,
      "componentType": 5126,
      "count": 1080,
      "max": [
        -0.8628771305084229,
        2.4130001068115234,
        3.8545820713043213
      ],
      "min": [
        -1.724714756011963,
        1.3969999551773071,
        2.7700002193450928
      ],
      "type": "VEC3"
    },
    {
      "bufferView": 1,
      "componentType": 5126,
      "count": 1080,
      "max": [
        0.999992847442627,
        1,
        0.9999866485595703
      ],
      "min": [
        -0.9999905228614807,
        -1,
        -0.9999866485595703
      ],
      "type": "VEC3"
    },
    {
      "bufferView": 2,
      "componentType": 5126,
      "count": 1080,
      "max": [
        1.6905834674835205,
        1.0160000324249268
      ],
      "min": [
        -1.6905834674835205,
        -0.34550023078918457
      ],
      "type": "VEC2"
    },
    {
      "bufferView": 3,
      "componentType": 5123,
      "count": 1080,
      "max": [
        1079
      ],
      "min": [
        0
      ],
      "type": "SCALAR"
    },
    {
      "bufferView": 4,
      "componentType": 5126,
      "count": 216,
      "max": [
        -3.1498453617095947,
        2.0573999881744385,
        3.8213951587677
      ],
      "min": [
        -4.303913593292236,
        1.0413999557495117,
        2.3539109230041504
      ],
      "type": "VEC3"
    },
    {
      "bufferView": 5,
      "componentType": 5126,
      "count": 216,
      "max": [
        0.9999866485595703,
        1,
        0.9999866485595703
      ],
      "min": [
        -0.9999866485595703,
        -1,
        -0.9999866485595703
      ],
      "type": "VEC3"
    },
    {
      "bufferView": 6,
      "componentType": 5126,
      "count": 216,
      "max": [
        1.4615812301635742,
        1.0160000324249268
      ],
      "min": [
        -4.269837856292725,
        -4.269837856292725
      ],
      "type": "VEC2"
    },
    {
      "bufferView": 7,
      "componentType": 5123,
      "count": 216,
      "max": [
        215
      ],
      "min": [
        0
      ],
      "type": "SCALAR"
    },
    {
      "bufferView": 8,
      "componentType": 5126,
      "count": 1920,
      "max": [
        1.3526625633239746,
        2.1589999198913574,
        3.8661692142486572
      ],
      "min": [
        0.37656956911087036,
        1.1430000066757202,
        2.7594783306121826
      ],
      "type": "VEC3"
    },
    {
      "bufferView": 9,
      "componentType": 5126,
      "count": 1920,
      "max": [
        0.9998919367790222,
        1,
        0.9999866485595703
      ],
      "min": [
        -0.9990993142127991,
        -1,
        -0.9999866485595703
      ],
      "type": "VEC3"
    },
    {
      "bufferView": 10,
      "componentType": 5126,
      "count": 1920,
      "max": [
        1.3867384195327759,
        1.0160000324249268
      ],
      "min": [
        -1.3867384195327759,
        -0.35602226853370667
      ],
      "type": "VEC2"
    },
    {
      "bufferView": 11,
      "componentType": 5123,
      "count": 1920,
      "max": [
        1919
      ],
      "min": [
        0
      ],
      "type": "SCALAR"
    },
    {
      "bufferView": 12,
      "componentType": 5126,
      "count": 2706,
      "max": [
        0.22195430099964142,
        2.1589999198913574,
        3.8605661392211914
      ],
      "min": [
        -0.6573495864868164,
        1.1430000066757202,
        2.7537567615509033
      ],
      "type": "VEC3"
    },
    {
      "bufferView": 13,
      "componentType": 5126,
      "count": 2706,
      "max": [
        0.9990872144699097,
        1,
        0.9999958276748657
      ],
      "min": [
        -0.9983851909637451,
        -1,
        -0.9998500347137451
      ],
      "type": "VEC3"
    },
    {
      "bufferView": 14,
      "componentType": 5126,
      "count": 2706,
      "max": [
        0.6232737898826599,
        1.0160000324249268
      ],
      "min": [
        -0.6232737898826599,
        -0.3617438077926636
      ],
      "type": "VEC2"
    },
    {
      "bufferView": 15,
      "componentType": 5123,
      "count": 2706,
      "max": [
        2705
      ],
      "min": [
        0
      ],
      "type": "SCALAR"
    },
    {
      "bufferView": 16,
      "componentType": 5126,
      "count": 15816,
      "max": [
        2.916442632675171,
        2.7939999103546143,
        10.738443374633789
      ],
      "min": [
        -2.9255573749542236,
        1.0160000324249268,
        4.8964433670043945
      ],
      "type": "VEC3"
    },
    {
      "bufferView": 17,
      "componentType": 5126,
      "count": 15816,
      "max": [
        1,
        1,
        1
      ],
      "min": [
        -1,
        -1,
        -1
      ],
      "type": "VEC3"
    },
    {
      "bufferView": 18,
      "componentType": 5126,
      "count": 15816,
      "max": [
        2.5145184993743896,
        5.747470855712891
      ],
      "min": [
        -2.5145184993743896,
        -5.747470855712891
      ],
      "type": "VEC2"
    },
    {
      "bufferView": 19,
      "componentType": 5123,
      "count": 15816,
      "max": [
        15815
      ],
      "min": [
        0
      ],
      "type": "SCALAR"
    },
    {
      "bufferView": 20,
      "componentType": 5126,
      "count": 2088,
      "max": [
        -1.9303009510040283,
        2.0573999881744385,
        3.8490869998931885
      ],
      "min": [
        -2.92236590385437,
        1.0413999557495117,
        2.7424476146698
      ],
      "type": "VEC3"
    },
    {
      "bufferView": 21,
      "componentType": 5126,
      "count": 2088,
      "max": [
        0.9997257590293884,
        1,
        0.9986351132392883
      ],
      "min": [
        -0.9996176362037659,
        -1,
        -0.9978499412536621
      ],
      "type": "VEC3"
    },
    {
      "bufferView": 22,
      "componentType": 5126,
      "count": 2088,
      "max": [
        2.8882901668548584,
        1.0160000324249268
      ],
      "min": [
        -2.8882901668548584,
        -0.3730529844760895
      ],
      "type": "VEC2"
    },
    {
      "bufferView": 23,
      "componentType": 5123,
      "count": 2088,
      "max": [
        2087
      ],
      "min": [
        0
      ],
      "type": "SCALAR"
    },
    {
      "bufferView": 24,
      "componentType": 5126,
      "count": 36042,
      "max": [
        7.395985126495361,
        1.9049999713897705,
        12.699999809265137
      ],
      "min": [
        -7.396400451660156,
        0,
        -0.025331441313028336
      ],
      "type": "VEC3"
    },
    {
      "bufferView": 25,
      "componentType": 5126,
      "count": 36042,
      "max": [
        0.9999889731407166,
        1,
        0.9999866485595703
      ],
      "min": [
        -0.999992847442627,
        -1,
        -0.9999958276748657
      ],
      "type": "VEC3"
    },
    {
      "bufferView": 26,
      "componentType": 5126,
      "count": 36042,
      "max": [
        15.602940559387207,
        20.491548538208008
      ],
      "min": [
        -15.606721878051758,
        -6.398519515991211
      ],
      "type": "VEC2"
    },
    {
      "bufferView": 27,
      "componentType": 5123,
      "count": 36042,
      "max": [
        36041
      ],
      "min": [
        0
      ],
      "type": "SCALAR"
    },
    {
      "bufferView": 28,
      "componentType": 5126,
      "count": 750,
      "max": [
        4.235762119293213,
        2.1589999198913574,
        3.858088254928589
      ],
      "min": [
        3.6138052940368652,
        1.1430000066757202,
        2.372194290161133
      ],
      "type": "VEC3"
    },
    {
      "bufferView": 29,
      "componentType": 5126,
      "count": 750,
      "max": [
        0.9999866485595703,
        1,
        0.9999866485595703
      ],
      "min": [
        -0.9999866485595703,
        -1,
        -0.9999866485595703
      ],
      "type": "VEC3"
    },
    {
      "bufferView": 30,
      "componentType": 5126,
      "count": 750,
      "max": [
        4.269837856292725,
        1.0160000324249268
      ],
      "min": [
        -4.269837856292725,
        -0.7433061599731445
      ],
      "type": "VEC2"
    },
    {
      "bufferView": 31,
      "componentType": 5123,
      "count": 750,
      "max": [
        749
      ],
      "min": [
        0
      ],
      "type": "SCALAR"
    },
    {
      "bufferView": 32,
      "componentType": 5126,
      "count": 2184,
      "max": [
        3.5021579265594482,
        2.1589999198913574,
        3.8770899772644043
      ],
      "min": [
        2.1043148040771484,
        1.1430000066757202,
        2.364687919616699
      ],
      "type": "VEC3"
    },
    {
      "bufferView": 33,
      "componentType": 5126,
      "count": 2184,
      "max": [
        0.9996386170387268,
        1,
        0.9985542297363281
      ],
      "min": [
        -0.9995588064193726,
        -1,
        -0.9980616569519043
      ],
      "type": "VEC3"
    },
    {
      "bufferView": 34,
      "componentType": 5126,
      "count": 2184,
      "max": [
        3.53623366355896,
        1.0160000324249268
      ],
      "min": [
        -3.53623366355896,
        -0.7508125901222229
      ],
      "type": "VEC2"
    },
    {
      "bufferView": 35,
      "componentType": 5123,
      "count": 2184,
      "max": [
        2183
      ],
      "min": [
        0
      ],
      "type": "SCALAR"
    }
  ],
  "materials": [
    {
      "pbrMetallicRoughness": {
        "baseColorFactor": [
          0.7686274509803922,
          0.20784313725490197,
          0.15294117647058825,
          1
        ],
        "metallicFactor": 0.5,
        "roughnessFactor": 0.5
      },
      "name": "Paint - Enamel Glossy (Red)"
    },
    {
      "pbrMetallicRoughness": {
        "baseColorFactor": [
          0.9647058823529412,
          0.9647058823529412,
          0.9529411764705882,
          1
        ],
        "metallicFactor": 0.5,
        "roughnessFactor": 0.5
      },
      "name": "Paint - Enamel Glossy (White)"
    },
    {
      "pbrMetallicRoughness": {
        "baseColorFactor": [
          0.7215686274509804,
          0.615686274509804,
          0.36470588235294116,
          1
        ],
        "metallicFactor": 0.5,
        "roughnessFactor": 0.5
      },
      "name": "Paint - Enamel Glossy (Yellow)"
    },
    {
      "pbrMetallicRoughness": {
        "baseColorFactor": [
          0.18823529411764706,
          0.23137254901960785,
          0.5882352941176471,
          1
        ],
        "metallicFactor": 0.5,
        "roughnessFactor": 0.5
      },
      "name": "Paint - Enamel Glossy (Blue)"
    }
  ],
  "meshes": [
    {
      "primitives": [
        {
          "mode": 4,
          "attributes": {
            "POSITION": 0,
            "NORMAL": 1,
            "TEXCOORD_0": 2
          },
          "indices": 3,
          "material": 0
        }
      ]
    },
    {
      "primitives": [
        {
          "mode": 4,
          "attributes": {
            "POSITION": 4,
            "NORMAL": 5,
            "TEXCOORD_0": 6
          },
          "indices": 7,
          "material": 1
        }
      ]
    },
    {
      "primitives": [
        {
          "mode": 4,
          "attributes": {
            "POSITION": 8,
            "NORMAL": 9,
            "TEXCOORD_0": 10
          },
          "indices": 11,
          "material": 1
        }
      ]
    },
    {
      "primitives": [
        {
          "mode": 4,
          "attributes": {
            "POSITION": 12,
            "NORMAL": 13,
            "TEXCOORD_0": 14
          },
          "indices": 15,
          "material": 1
        }
      ]
    },
    {
      "primitives": [
        {
          "mode": 4,
          "attributes": {
            "POSITION": 16,
            "NORMAL": 17,
            "TEXCOORD_0": 18
          },
          "indices": 19,
          "material": 2
        }
      ]
    },
    {
      "primitives": [
        {
          "mode": 4,
          "attributes": {
            "POSITION": 20,
            "NORMAL": 21,
            "TEXCOORD_0": 22
          },
          "indices": 23,
          "material": 1
        }
      ]
    },
    {
      "primitives": [
        {
          "mode": 4,
          "attributes": {
            "POSITION": 24,
            "NORMAL": 25,
            "TEXCOORD_0": 26
          },
          "indices": 27,
          "material": 3
        }
      ]
    },
    {
      "primitives": [
        {
          "mode": 4,
          "attributes": {
            "POSITION": 28,
            "NORMAL": 29,
            "TEXCOORD_0": 30
          },
          "indices": 31,
          "material": 1
        }
      ]
    },
    {
      "primitives": [
        {
          "mode": 4,
          "attributes": {
            "POSITION": 32,
            "NORMAL": 33,
            "TEXCOORD_0": 34
          },
          "indices": 35,
          "material": 1
        }
      ]
    }
  ]
}