{
  "asset": {
    "version": "2.0",
    "generator": "THREE.GLTFExporter"
  },
  "scenes": [
    {
      "nodes": [
        2
      ],
      "name": "AuxScene"
    }
  ],
  "scene": 0,
  "nodes": [
    {
      "matrix": [
        0.39370078740157477,
        0,
        0,
        0,
        0,
        0.39370078740157477,
        0,
        0,
        0,
        0,
        0.39370078740157477,
        0,
        0,
        0,
        0,
        1
      ],
      "name": "Body2",
      "mesh": 0
    },
    {
      "name": "soulfood_v4",
      "children": [
        0
      ]
    },
    {
      "children": [
        1
      ]
    }
  ],
  "bufferViews": [
    {
      "buffer": 0,
      "byteOffset": 0,
      "byteLength": 166536,
      "target": 34962,
      "byteStride": 12
    },
    {
      "buffer": 0,
      "byteOffset": 166536,
      "byteLength": 166536,
      "target": 34962,
      "byteStride": 12
    },
    {
      "buffer": 0,
      "byteOffset": 333072,
      "byteLength": 111024,
      "target": 34962,
      "byteStride": 8
    },
    {
      "buffer": 0,
      "byteOffset": 444096,
      "byteLength": 27756,
      "target": 34963
    }
  ],
  "buffers": [
    {
      "byteLength": 471852,
      "uri": "data:application/octet-stream;base64,"
    }
  ],
  "accessors": [
    {
      "bufferView": 0,
      "componentType": 5126,
      "count": 13878,
      "max": [
        7.96177339553833,
        13.803773880004883,
        5.968999862670898
      ],
      "min": [
        -10.501773834228516,
        -4.659773349761963,
        0
      ],
      "type": "VEC3"
    },
    {
      "bufferView": 1,
      "componentType": 5126,
      "count": 13878,
      "max": [
        1,
        1,
        1
      ],
      "min": [
        -1,
        -1,
        -1
      ],
      "type": "VEC3"
    },
    {
      "bufferView": 2,
      "componentType": 5126,
      "count": 13878,
      "max": [
        9.231773376464844,
        26.11188507080078
      ],
      "min": [
        -9.231773376464844,
        -26.11188507080078
      ],
      "type": "VEC2"
    },
    {
      "bufferView": 3,
      "componentType": 5123,
      "count": 13878,
      "max": [
        13877
      ],
      "min": [
        0
      ],
      "type": "SCALAR"
    }
  ],
  "materials": [
    {
      "pbrMetallicRoughness": {
        "baseColorFactor": [
          0.7686274509803922,
          0.20784313725490197,
          0.15294117647058825,
          1
        ],
        "metallicFactor": 0.5,
        "roughnessFactor": 0.5
      },
      "name": "Paint - Enamel Glossy (Red)"
    }
  ],
  "meshes": [
    {
      "primitives": [
        {
          "mode": 4,
          "attributes": {
            "POSITION": 0,
            "NORMAL": 1,
            "TEXCOORD_0": 2
          },
          "indices": 3,
          "material": 0
        }
      ]
    }
  ]
}