{
  "asset": {
    "version": "2.0",
    "generator": "THREE.GLTFExporter"
  },
  "scenes": [
    {
      "nodes": [
        10
      ],
      "name": "AuxScene"
    }
  ],
  "scene": 0,
  "nodes": [
    {
      "matrix": [
        10,
        0,
        0,
        0,
        0,
        10,
        0,
        0,
        0,
        0,
        10,
        0,
        0,
        0,
        0,
        1
      ],
      "name": "Body7",
      "mesh": 0
    },
    {
      "matrix": [
        10,
        0,
        0,
        0,
        0,
        10,
        0,
        0,
        0,
        0,
        10,
        0,
        0,
        0,
        0,
        1
      ],
      "name": "Body8",
      "mesh": 1
    },
    {
      "matrix": [
        10,
        0,
        0,
        0,
        0,
        10,
        0,
        0,
        0,
        0,
        10,
        0,
        0,
        0,
        0,
        1
      ],
      "name": "Body3",
      "mesh": 2
    },
    {
      "matrix": [
        10,
        0,
        0,
        0,
        0,
        10,
        0,
        0,
        0,
        0,
        10,
        0,
        0,
        0,
        0,
        1
      ],
      "name": "Body5",
      "mesh": 3
    },
    {
      "matrix": [
        10,
        0,
        0,
        0,
        0,
        10,
        0,
        0,
        0,
        0,
        10,
        0,
        0,
        0,
        0,
        1
      ],
      "name": "Body2",
      "mesh": 4
    },
    {
      "matrix": [
        10,
        0,
        0,
        0,
        0,
        10,
        0,
        0,
        0,
        0,
        10,
        0,
        0,
        0,
        0,
        1
      ],
      "name": "Body9",
      "mesh": 5
    },
    {
      "matrix": [
        10,
        0,
        0,
        0,
        0,
        10,
        0,
        0,
        0,
        0,
        10,
        0,
        0,
        0,
        0,
        1
      ],
      "name": "Body1",
      "mesh": 6
    },
    {
      "matrix": [
        10,
        0,
        0,
        0,
        0,
        10,
        0,
        0,
        0,
        0,
        10,
        0,
        0,
        0,
        0,
        1
      ],
      "name": "Body4",
      "mesh": 7
    },
    {
      "matrix": [
        10,
        0,
        0,
        0,
        0,
        10,
        0,
        0,
        0,
        0,
        10,
        0,
        0,
        0,
        0,
        1
      ],
      "name": "Body6",
      "mesh": 8
    },
    {
      "name": "crest_v1",
      "children": [
        0,
        1,
        2,
        3,
        4,
        5,
        6,
        7,
        8
      ]
    },
    {
      "children": [
        9
      ]
    }
  ],
  "bufferViews": [
    {
      "buffer": 0,
      "byteOffset": 0,
      "byteLength": 864,
      "target": 34962,
      "byteStride": 12
    },
    {
      "buffer": 0,
      "byteOffset": 864,
      "byteLength": 864,
      "target": 34962,
      "byteStride": 12
    },
    {
      "buffer": 0,
      "byteOffset": 1728,
      "byteLength": 576,
      "target": 34962,
      "byteStride": 8
    },
    {
      "buffer": 0,
      "byteOffset": 2304,
      "byteLength": 144,
      "target": 34963
    },
    {
      "buffer": 0,
      "byteOffset": 2448,
      "byteLength": 864,
      "target": 34962,
      "byteStride": 12
    },
    {
      "buffer": 0,
      "byteOffset": 3312,
      "byteLength": 864,
      "target": 34962,
      "byteStride": 12
    },
    {
      "buffer": 0,
      "byteOffset": 4176,
      "byteLength": 576,
      "target": 34962,
      "byteStride": 8
    },
    {
      "buffer": 0,
      "byteOffset": 4752,
      "byteLength": 144,
      "target": 34963
    },
    {
      "buffer": 0,
      "byteOffset": 4896,
      "byteLength": 90504,
      "target": 34962,
      "byteStride": 12
    },
    {
      "buffer": 0,
      "byteOffset": 95400,
      "byteLength": 90504,
      "target": 34962,
      "byteStride": 12
    },
    {
      "buffer": 0,
      "byteOffset": 185904,
      "byteLength": 60336,
      "target": 34962,
      "byteStride": 8
    },
    {
      "buffer": 0,
      "byteOffset": 246240,
      "byteLength": 15084,
      "target": 34963
    },
    {
      "buffer": 0,
      "byteOffset": 261324,
      "byteLength": 864,
      "target": 34962,
      "byteStride": 12
    },
    {
      "buffer": 0,
      "byteOffset": 262188,
      "byteLength": 864,
      "target": 34962,
      "byteStride": 12
    },
    {
      "buffer": 0,
      "byteOffset": 263052,
      "byteLength": 576,
      "target": 34962,
      "byteStride": 8
    },
    {
      "buffer": 0,
      "byteOffset": 263628,
      "byteLength": 144,
      "target": 34963
    },
    {
      "buffer": 0,
      "byteOffset": 263772,
      "byteLength": 1368,
      "target": 34962,
      "byteStride": 12
    },
    {
      "buffer": 0,
      "byteOffset": 265140,
      "byteLength": 1368,
      "target": 34962,
      "byteStride": 12
    },
    {
      "buffer": 0,
      "byteOffset": 266508,
      "byteLength": 912,
      "target": 34962,
      "byteStride": 8
    },
    {
      "buffer": 0,
      "byteOffset": 267420,
      "byteLength": 228,
      "target": 34963
    },
    {
      "buffer": 0,
      "byteOffset": 267648,
      "byteLength": 63936,
      "target": 34962,
      "byteStride": 12
    },
    {
      "buffer": 0,
      "byteOffset": 331584,
      "byteLength": 63936,
      "target": 34962,
      "byteStride": 12
    },
    {
      "buffer": 0,
      "byteOffset": 395520,
      "byteLength": 42624,
      "target": 34962,
      "byteStride": 8
    },
    {
      "buffer": 0,
      "byteOffset": 438144,
      "byteLength": 10656,
      "target": 34963
    },
    {
      "buffer": 0,
      "byteOffset": 448800,
      "byteLength": 16920,
      "target": 34962,
      "byteStride": 12
    },
    {
      "buffer": 0,
      "byteOffset": 465720,
      "byteLength": 16920,
      "target": 34962,
      "byteStride": 12
    },
    {
      "buffer": 0,
      "byteOffset": 482640,
      "byteLength": 11280,
      "target": 34962,
      "byteStride": 8
    },
    {
      "buffer": 0,
      "byteOffset": 493920,
      "byteLength": 2820,
      "target": 34963
    },
    {
      "buffer": 0,
      "byteOffset": 496740,
      "byteLength": 34488,
      "target": 34962,
      "byteStride": 12
    },
    {
      "buffer": 0,
      "byteOffset": 531228,
      "byteLength": 34488,
      "target": 34962,
      "byteStride": 12
    },
    {
      "buffer": 0,
      "byteOffset": 565716,
      "byteLength": 22992,
      "target": 34962,
      "byteStride": 8
    },
    {
      "buffer": 0,
      "byteOffset": 588708,
      "byteLength": 5748,
      "target": 34963
    },
    {
      "buffer": 0,
      "byteOffset": 594456,
      "byteLength": 864,
      "target": 34962,
      "byteStride": 12
    },
    {
      "buffer": 0,
      "byteOffset": 595320,
      "byteLength": 864,
      "target": 34962,
      "byteStride": 12
    },
    {
      "buffer": 0,
      "byteOffset": 596184,
      "byteLength": 576,
      "target": 34962,
      "byteStride": 8
    },
    {
      "buffer": 0,
      "byteOffset": 596760,
      "byteLength": 144,
      "target": 34963
    }
  ],
  "buffers": [
    {
      "byteLength": 596904,
      "uri": "data:application/octet-stream;base64,"
    }
  ],
  "accessors": [
    {
      "bufferView": 0,
      "componentType": 5126,
      "count": 72,
      "max": [
        -0.9320192933082581,
        -0.18211905658245087,
        1.253999948501587
      ],
      "min": [
        -1.0785309076309204,
        -0.8714118003845215,
        1
      ],
      "type": "VEC3"
    },
    {
      "bufferView": 1,
      "componentType": 5126,
      "count": 72,
      "max": [
        1,
        1,
        1
      ],
      "min": [
        -0.9994144439697266,
        -1,
        -1
      ],
      "type": "VEC3"
    },
    {
      "bufferView": 2,
      "componentType": 5126,
      "count": 72,
      "max": [
        0.6896966099739075,
        0.3446463644504547
      ],
      "min": [
        -0.07325579226016998,
        -0.3446463644504547
      ],
      "type": "VEC2"
    },
    {
      "bufferView": 3,
      "componentType": 5123,
      "count": 72,
      "max": [
        71
      ],
      "min": [
        0
      ],
      "type": "SCALAR"
    },
    {
      "bufferView": 4,
      "componentType": 5126,
      "count": 72,
      "max": [
        1.1279926300048828,
        -0.18211905658245087,
        1.253999948501587
      ],
      "min": [
        0.9814810156822205,
        -0.8714118003845215,
        1
      ],
      "type": "VEC3"
    },
    {
      "bufferView": 5,
      "componentType": 5126,
      "count": 72,
      "max": [
        0.9994144439697266,
        1,
        1
      ],
      "min": [
        -1,
        -1,
        -1
      ],
      "type": "VEC3"
    },
    {
      "bufferView": 6,
      "componentType": 5126,
      "count": 72,
      "max": [
        0.6896966099739075,
        0.3446463644504547
      ],
      "min": [
        -0.07325579226016998,
        -0.3446463644504547
      ],
      "type": "VEC2"
    },
    {
      "bufferView": 7,
      "componentType": 5123,
      "count": 72,
      "max": [
        71
      ],
      "min": [
        0
      ],
      "type": "SCALAR"
    },
    {
      "bufferView": 8,
      "componentType": 5126,
      "count": 7542,
      "max": [
        1.8249115943908691,
        0.9851645827293396,
        1.5080000162124634
      ],
      "min": [
        -1.6913412809371948,
        -0.12902076542377472,
        1
      ],
      "type": "VEC3"
    },
    {
      "bufferView": 9,
      "componentType": 5126,
      "count": 7542,
      "max": [
        0.9999398589134216,
        0.9999685287475586,
        1
      ],
      "min": [
        -1,
        -0.9998437762260437,
        -1
      ],
      "type": "VEC3"
    },
    {
      "bufferView": 10,
      "componentType": 5126,
      "count": 7542,
      "max": [
        1.7582926750183105,
        1.799918293952942
      ],
      "min": [
        -1.7578623294830322,
        -0.5202726721763611
      ],
      "type": "VEC2"
    },
    {
      "bufferView": 11,
      "componentType": 5123,
      "count": 7542,
      "max": [
        7541
      ],
      "min": [
        0
      ],
      "type": "SCALAR"
    },
    {
      "bufferView": 12,
      "componentType": 5126,
      "count": 72,
      "max": [
        1.4092161655426025,
        -0.18211905658245087,
        1.5080000162124634
      ],
      "min": [
        1.243038535118103,
        -1.8183289766311646,
        1
      ],
      "type": "VEC3"
    },
    {
      "bufferView": 13,
      "componentType": 5126,
      "count": 72,
      "max": [
        1,
        1,
        1
      ],
      "min": [
        -0.9999277591705322,
        -1,
        -1
      ],
      "type": "VEC3"
    },
    {
      "bufferView": 14,
      "componentType": 5126,
      "count": 72,
      "max": [
        1.636328101158142,
        0.8181049823760986
      ],
      "min": [
        -0.08308878540992737,
        -0.8181049823760986
      ],
      "type": "VEC2"
    },
    {
      "bufferView": 15,
      "componentType": 5123,
      "count": 72,
      "max": [
        71
      ],
      "min": [
        0
      ],
      "type": "SCALAR"
    },
    {
      "bufferView": 16,
      "componentType": 5126,
      "count": 114,
      "max": [
        2.8751943111419678,
        -0.053418148308992386,
        0.5
      ],
      "min": [
        -2.8223156929016113,
        -5.169617176055908,
        0
      ],
      "type": "VEC3"
    },
    {
      "bufferView": 17,
      "componentType": 5126,
      "count": 114,
      "max": [
        1,
        0.6364977955818176,
        1
      ],
      "min": [
        -1,
        -0.6244819164276123,
        -1
      ],
      "type": "VEC3"
    },
    {
      "bufferView": 18,
      "componentType": 5126,
      "count": 114,
      "max": [
        4.561789512634277,
        2.5580995082855225
      ],
      "min": [
        -2.8487548828125,
        -2.5580995082855225
      ],
      "type": "VEC2"
    },
    {
      "bufferView": 19,
      "componentType": 5123,
      "count": 114,
      "max": [
        113
      ],
      "min": [
        0
      ],
      "type": "SCALAR"
    },
    {
      "bufferView": 20,
      "componentType": 5126,
      "count": 5328,
      "max": [
        2.831451892852783,
        6.171090126037598,
        1.1269999742507935
      ],
      "min": [
        -2.790341377258301,
        -0.7981579899787903,
        1
      ],
      "type": "VEC3"
    },
    {
      "bufferView": 21,
      "componentType": 5126,
      "count": 5328,
      "max": [
        1,
        1,
        1
      ],
      "min": [
        -1,
        -0.999721348285675,
        -1
      ],
      "type": "VEC3"
    },
    {
      "bufferView": 22,
      "componentType": 5126,
      "count": 5328,
      "max": [
        2.8110811710357666,
        3.4554877281188965
      ],
      "min": [
        -3.4277141094207764,
        -3.5137600898742676
      ],
      "type": "VEC2"
    },
    {
      "bufferView": 23,
      "componentType": 5123,
      "count": 5328,
      "max": [
        5327
      ],
      "min": [
        0
      ],
      "type": "SCALAR"
    },
    {
      "bufferView": 24,
      "componentType": 5126,
      "count": 1410,
      "max": [
        2.874664545059204,
        4.210841178894043,
        1
      ],
      "min": [
        -2.8214752674102783,
        -3.508812189102173,
        0
      ],
      "type": "VEC3"
    },
    {
      "bufferView": 25,
      "componentType": 5126,
      "count": 1410,
      "max": [
        0.9998577833175659,
        0.9999909996986389,
        1
      ],
      "min": [
        -0.9998295307159424,
        -0.6364977955818176,
        -1
      ],
      "type": "VEC3"
    },
    {
      "bufferView": 26,
      "componentType": 5126,
      "count": 1410,
      "max": [
        4.475117206573486,
        3.8598268032073975
      ],
      "min": [
        -2.848069906234741,
        -3.8598268032073975
      ],
      "type": "VEC2"
    },
    {
      "bufferView": 27,
      "componentType": 5123,
      "count": 1410,
      "max": [
        1409
      ],
      "min": [
        0
      ],
      "type": "SCALAR"
    },
    {
      "bufferView": 28,
      "componentType": 5126,
      "count": 2874,
      "max": [
        1.459364414215088,
        3.2768352031707764,
        1.253999948501587
      ],
      "min": [
        -1.3253390789031982,
        0.8985268473625183,
        1
      ],
      "type": "VEC3"
    },
    {
      "bufferView": 29,
      "componentType": 5126,
      "count": 2874,
      "max": [
        0.9978079795837402,
        1,
        1
      ],
      "min": [
        -0.9979424476623535,
        -0.9999948740005493,
        -1
      ],
      "type": "VEC3"
    },
    {
      "bufferView": 30,
      "componentType": 5126,
      "count": 2874,
      "max": [
        1.901936650276184,
        8.572938919067383
      ],
      "min": [
        -1.5888302326202393,
        -1.1891541481018066
      ],
      "type": "VEC2"
    },
    {
      "bufferView": 31,
      "componentType": 5123,
      "count": 2874,
      "max": [
        2873
      ],
      "min": [
        0
      ],
      "type": "SCALAR"
    },
    {
      "bufferView": 32,
      "componentType": 5126,
      "count": 72,
      "max": [
        -1.1935769319534302,
        -0.18211905658245087,
        1.5080000162124634
      ],
      "min": [
        -1.3597544431686401,
        -1.8183289766311646,
        1
      ],
      "type": "VEC3"
    },
    {
      "bufferView": 33,
      "componentType": 5126,
      "count": 72,
      "max": [
        0.9999277591705322,
        1,
        1
      ],
      "min": [
        -1,
        -1,
        -1
      ],
      "type": "VEC3"
    },
    {
      "bufferView": 34,
      "componentType": 5126,
      "count": 72,
      "max": [
        1.636328101158142,
        0.8181049823760986
      ],
      "min": [
        -0.08308878540992737,
        -0.8181049823760986
      ],
      "type": "VEC2"
    },
    {
      "bufferView": 35,
      "componentType": 5123,
      "count": 72,
      "max": [
        71
      ],
      "min": [
        0
      ],
      "type": "SCALAR"
    }
  ],
  "materials": [
    {
      "pbrMetallicRoughness": {
        "baseColorFactor": [
          0.17254901960784313,
          0.17254901960784313,
          0.17254901960784313,
          1
        ],
        "metallicFactor": 0.5,
        "roughnessFactor": 0.5
      },
      "name": "Coating - Black Oxide"
    },
    {
      "pbrMetallicRoughness": {
        "baseColorFactor": [
          0.9647058823529412,
          0.9647058823529412,
          0.9529411764705882,
          1
        ],
        "metallicFactor": 0.5,
        "roughnessFactor": 0.5
      },
      "name": "Paint - Enamel Glossy (White)"
    },
    {
      "pbrMetallicRoughness": {
        "baseColorFactor": [
          0.7686274509803922,
          0.20784313725490197,
          0.15294117647058825,
          1
        ],
        "metallicFactor": 0.5,
        "roughnessFactor": 0.5
      },
      "name": "Paint - Enamel Glossy (Red)"
    }
  ],
  "meshes": [
    {
      "primitives": [
        {
          "mode": 4,
          "attributes": {
            "POSITION": 0,
            "NORMAL": 1,
            "TEXCOORD_0": 2
          },
          "indices": 3,
          "material": 0
        }
      ]
    },
    {
      "primitives": [
        {
          "mode": 4,
          "attributes": {
            "POSITION": 4,
            "NORMAL": 5,
            "TEXCOORD_0": 6
          },
          "indices": 7,
          "material": 0
        }
      ]
    },
    {
      "primitives": [
        {
          "mode": 4,
          "attributes": {
            "POSITION": 8,
            "NORMAL": 9,
            "TEXCOORD_0": 10
          },
          "indices": 11,
          "material": 0
        }
      ]
    },
    {
      "primitives": [
        {
          "mode": 4,
          "attributes": {
            "POSITION": 12,
            "NORMAL": 13,
            "TEXCOORD_0": 14
          },
          "indices": 15,
          "material": 0
        }
      ]
    },
    {
      "primitives": [
        {
          "mode": 4,
          "attributes": {
            "POSITION": 16,
            "NORMAL": 17,
            "TEXCOORD_0": 18
          },
          "indices": 19,
          "material": 1
        }
      ]
    },
    {
      "primitives": [
        {
          "mode": 4,
          "attributes": {
            "POSITION": 20,
            "NORMAL": 21,
            "TEXCOORD_0": 22
          },
          "indices": 23,
          "material": 0
        }
      ]
    },
    {
      "primitives": [
        {
          "mode": 4,
          "attributes": {
            "POSITION": 24,
            "NORMAL": 25,
            "TEXCOORD_0": 26
          },
          "indices": 27,
          "material": 2
        }
      ]
    },
    {
      "primitives": [
        {
          "mode": 4,
          "attributes": {
            "POSITION": 28,
            "NORMAL": 29,
            "TEXCOORD_0": 30
          },
          "indices": 31,
          "material": 0
        }
      ]
    },
    {
      "primitives": [
        {
          "mode": 4,
          "attributes": {
            "POSITION": 32,
            "NORMAL": 33,
            "TEXCOORD_0": 34
          },
          "indices": 35,
          "material": 0
        }
      ]
    }
  ]
}