{
  "asset": {
    "version": "2.0",
    "generator": "THREE.GLTFExporter"
  },
  "scenes": [
    {
      "nodes": [
        3
      ],
      "name": "AuxScene"
    }
  ],
  "scene": 0,
  "nodes": [
    {
      "matrix": [
        0.39370078740157477,
        0,
        0,
        0,
        0,
        0.39370078740157477,
        0,
        0,
        0,
        0,
        0.39370078740157477,
        0,
        0,
        0,
        0,
        1
      ],
      "name": "Body1",
      "mesh": 0
    },
    {
      "matrix": [
        0.39370078740157477,
        0,
        0,
        0,
        0,
        0.39370078740157477,
        0,
        0,
        0,
        0,
        0.39370078740157477,
        0,
        0,
        0,
        0,
        1
      ],
      "name": "Body2",
      "mesh": 1
    },
    {
      "name": "coatofarms_v3",
      "children": [
        0,
        1
      ]
    },
    {
      "children": [
        2
      ]
    }
  ],
  "bufferViews": [
    {
      "buffer": 0,
      "byteOffset": 0,
      "byteLength": 62208,
      "target": 34962,
      "byteStride": 12
    },
    {
      "buffer": 0,
      "byteOffset": 62208,
      "byteLength": 62208,
      "target": 34962,
      "byteStride": 12
    },
    {
      "buffer": 0,
      "byteOffset": 124416,
      "byteLength": 41472,
      "target": 34962,
      "byteStride": 8
    },
    {
      "buffer": 0,
      "byteOffset": 165888,
      "byteLength": 10368,
      "target": 34963
    },
    {
      "buffer": 0,
      "byteOffset": 176256,
      "byteLength": 1512,
      "target": 34962,
      "byteStride": 12
    },
    {
      "buffer": 0,
      "byteOffset": 177768,
      "byteLength": 1512,
      "target": 34962,
      "byteStride": 12
    },
    {
      "buffer": 0,
      "byteOffset": 179280,
      "byteLength": 1008,
      "target": 34962,
      "byteStride": 8
    },
    {
      "buffer": 0,
      "byteOffset": 180288,
      "byteLength": 252,
      "target": 34963
    }
  ],
  "buffers": [
    {
      "byteLength": 180540,
      "uri": "data:application/octet-stream;base64,"
    }
  ],
  "accessors": [
    {
      "bufferView": 0,
      "componentType": 5126,
      "count": 5184,
      "max": [
        7.82319974899292,
        -1.1683999300003052,
        1.0160000324249268
      ],
      "min": [
        0.22859999537467957,
        -13.233399391174316,
        0
      ],
      "type": "VEC3"
    },
    {
      "bufferView": 1,
      "componentType": 5126,
      "count": 5184,
      "max": [
        1,
        1,
        1
      ],
      "min": [
        -1,
        -1,
        -1
      ],
      "type": "VEC3"
    },
    {
      "bufferView": 2,
      "componentType": 5126,
      "count": 5184,
      "max": [
        8.9169921875,
        6.03249979019165
      ],
      "min": [
        -7.766983985900879,
        -6.03249979019165
      ],
      "type": "VEC2"
    },
    {
      "bufferView": 3,
      "componentType": 5123,
      "count": 5184,
      "max": [
        5183
      ],
      "min": [
        0
      ],
      "type": "SCALAR"
    },
    {
      "bufferView": 4,
      "componentType": 5126,
      "count": 126,
      "max": [
        6.299200057983398,
        -0.3301999866962433,
        1.0160000324249268
      ],
      "min": [
        1.5773402452468872,
        -2.8447999954223633,
        0
      ],
      "type": "VEC3"
    },
    {
      "bufferView": 5,
      "componentType": 5126,
      "count": 126,
      "max": [
        1,
        0.7163349390029907,
        1
      ],
      "min": [
        -0.9989420771598816,
        -1,
        -1
      ],
      "type": "VEC3"
    },
    {
      "bufferView": 6,
      "componentType": 5126,
      "count": 126,
      "max": [
        4.648200035095215,
        1.2573000192642212
      ],
      "min": [
        -2.3609297275543213,
        -1.2573000192642212
      ],
      "type": "VEC2"
    },
    {
      "bufferView": 7,
      "componentType": 5123,
      "count": 126,
      "max": [
        125
      ],
      "min": [
        0
      ],
      "type": "SCALAR"
    }
  ],
  "materials": [
    {
      "pbrMetallicRoughness": {
        "baseColorFactor": [
          0.6274509803921569,
          0.6274509803921569,
          0.6274509803921569,
          1
        ],
        "metallicFactor": 0.5,
        "roughnessFactor": 0.5
      },
      "name": "Steel - Satin"
    }
  ],
  "meshes": [
    {
      "primitives": [
        {
          "mode": 4,
          "attributes": {
            "POSITION": 0,
            "NORMAL": 1,
            "TEXCOORD_0": 2
          },
          "indices": 3,
          "material": 0
        }
      ]
    },
    {
      "primitives": [
        {
          "mode": 4,
          "attributes": {
            "POSITION": 4,
            "NORMAL": 5,
            "TEXCOORD_0": 6
          },
          "indices": 7,
          "material": 0
        }
      ]
    }
  ]
}