{
  "asset": {
    "version": "2.0",
    "generator": "THREE.GLTFExporter"
  },
  "scenes": [
    {
      "nodes": [
        3
      ],
      "name": "AuxScene"
    }
  ],
  "scene": 0,
  "nodes": [
    {
      "matrix": [
        0.39370078740157477,
        0,
        0,
        0,
        0,
        0.39370078740157477,
        0,
        0,
        0,
        0,
        0.39370078740157477,
        0,
        0,
        0,
        0,
        1
      ],
      "name": "Body2",
      "mesh": 0
    },
    {
      "matrix": [
        0.39370078740157477,
        0,
        0,
        0,
        0,
        0.39370078740157477,
        0,
        0,
        0,
        0,
        0.39370078740157477,
        0,
        0,
        0,
        0,
        1
      ],
      "name": "Body3",
      "mesh": 1
    },
    {
      "name": "coatOfArmsFinal_v27",
      "children": [
        0,
        1
      ]
    },
    {
      "children": [
        2
      ]
    }
  ],
  "bufferViews": [
    {
      "buffer": 0,
      "byteOffset": 0,
      "byteLength": 155664,
      "target": 34962,
      "byteStride": 12
    },
    {
      "buffer": 0,
      "byteOffset": 155664,
      "byteLength": 155664,
      "target": 34962,
      "byteStride": 12
    },
    {
      "buffer": 0,
      "byteOffset": 311328,
      "byteLength": 103776,
      "target": 34962,
      "byteStride": 8
    },
    {
      "buffer": 0,
      "byteOffset": 415104,
      "byteLength": 25944,
      "target": 34963
    },
    {
      "buffer": 0,
      "byteOffset": 441048,
      "byteLength": 175968,
      "target": 34962,
      "byteStride": 12
    },
    {
      "buffer": 0,
      "byteOffset": 617016,
      "byteLength": 175968,
      "target": 34962,
      "byteStride": 12
    },
    {
      "buffer": 0,
      "byteOffset": 792984,
      "byteLength": 117312,
      "target": 34962,
      "byteStride": 8
    },
    {
      "buffer": 0,
      "byteOffset": 910296,
      "byteLength": 29328,
      "target": 34963
    }
  ],
  "buffers": [
    {
      "byteLength": 939624,
      "uri": "data:application/octet-stream;base64,"
    }
  ],
  "accessors": [
    {
      "bufferView": 0,
      "componentType": 5126,
      "count": 12972,
      "max": [
        16.50458335876465,
        0.00031723096617497504,
        2.6034998893737793
      ],
      "min": [
        0.001806331449188292,
        -15.586051940917969,
        0
      ],
      "type": "VEC3"
    },
    {
      "bufferView": 1,
      "componentType": 5126,
      "count": 12972,
      "max": [
        1,
        1,
        1
      ],
      "min": [
        -1,
        -1,
        -1
      ],
      "type": "VEC3"
    },
    {
      "bufferView": 2,
      "componentType": 5126,
      "count": 12972,
      "max": [
        18.470417022705078,
        8.39065170288086
      ],
      "min": [
        -17.78851318359375,
        -7.770313262939453
      ],
      "type": "VEC2"
    },
    {
      "bufferView": 3,
      "componentType": 5123,
      "count": 12972,
      "max": [
        12971
      ],
      "min": [
        0
      ],
      "type": "SCALAR"
    },
    {
      "bufferView": 4,
      "componentType": 5126,
      "count": 14664,
      "max": [
        13.509779930114746,
        -4.151400089263916,
        2.2225000858306885
      ],
      "min": [
        6.485180377960205,
        -7.9425201416015625,
        1.9049999713897705
      ],
      "type": "VEC3"
    },
    {
      "bufferView": 5,
      "componentType": 5126,
      "count": 14664,
      "max": [
        1,
        1,
        1
      ],
      "min": [
        -1,
        -1,
        -1
      ],
      "type": "VEC3"
    },
    {
      "bufferView": 6,
      "componentType": 5126,
      "count": 14664,
      "max": [
        3.5459859371185303,
        2.8603851795196533
      ],
      "min": [
        -3.5459859371185303,
        -2.8603851795196533
      ],
      "type": "VEC2"
    },
    {
      "bufferView": 7,
      "componentType": 5123,
      "count": 14664,
      "max": [
        14663
      ],
      "min": [
        0
      ],
      "type": "SCALAR"
    }
  ],
  "materials": [
    {
      "pbrMetallicRoughness": {
        "baseColorFactor": [
          0.6274509803921569,
          0.6274509803921569,
          0.6274509803921569,
          1
        ],
        "metallicFactor": 0.5,
        "roughnessFactor": 0.5
      },
      "name": "Steel - Satin"
    }
  ],
  "meshes": [
    {
      "primitives": [
        {
          "mode": 4,
          "attributes": {
            "POSITION": 0,
            "NORMAL": 1,
            "TEXCOORD_0": 2
          },
          "indices": 3,
          "material": 0
        }
      ]
    },
    {
      "primitives": [
        {
          "mode": 4,
          "attributes": {
            "POSITION": 4,
            "NORMAL": 5,
            "TEXCOORD_0": 6
          },
          "indices": 7,
          "material": 0
        }
      ]
    }
  ]
}